<mxfile host="app.diagrams.net" agent="Mozilla/5.0 (Windows NT 10.0; Win64; x64) AppleWebKit/537.36 (KHTML, like Gecko) Chrome/133.0.0.0 Safari/537.36" version="26.1.0">
  <diagram name="Page-1" id="LB18JWQhaqUvgiIa7Hph">
    <mxGraphModel dx="1434" dy="772" grid="1" gridSize="10" guides="1" tooltips="1" connect="1" arrows="1" fold="1" page="1" pageScale="1" pageWidth="827" pageHeight="1169" math="0" shadow="0">
      <root>
        <mxCell id="0" />
        <mxCell id="1" parent="0" />
        <mxCell id="rp8YPWn2PLwtabxcjHet-11" value="" style="edgeStyle=orthogonalEdgeStyle;rounded=0;orthogonalLoop=1;jettySize=auto;html=1;" parent="1" source="rp8YPWn2PLwtabxcjHet-9" target="rp8YPWn2PLwtabxcjHet-10" edge="1">
          <mxGeometry relative="1" as="geometry" />
        </mxCell>
        <mxCell id="rp8YPWn2PLwtabxcjHet-9" value="&lt;p style=&quot;margin:0px;margin-top:4px;text-align:center;text-decoration:underline;&quot;&gt;&lt;b&gt;Object:SAM2&lt;/b&gt;&lt;/p&gt;&lt;hr size=&quot;1&quot; style=&quot;border-style:solid;&quot;&gt;&lt;p style=&quot;margin:0px;margin-left:8px;&quot;&gt;Segment:&lt;/p&gt;&lt;p style=&quot;margin:0px;margin-left:8px;&quot;&gt;* User&lt;/p&gt;&lt;p style=&quot;margin:0px;margin-left:8px;&quot;&gt;* Hand&lt;/p&gt;&lt;p style=&quot;margin:0px;margin-left:8px;&quot;&gt;* Object&lt;/p&gt;&lt;p style=&quot;margin:0px;margin-left:8px;&quot;&gt;* Robot&lt;/p&gt;" style="verticalAlign=top;align=left;overflow=fill;html=1;whiteSpace=wrap;" parent="1" vertex="1">
          <mxGeometry x="234" y="280" width="160" height="110" as="geometry" />
        </mxCell>
        <mxCell id="rp8YPWn2PLwtabxcjHet-13" value="" style="edgeStyle=orthogonalEdgeStyle;rounded=0;orthogonalLoop=1;jettySize=auto;html=1;" parent="1" source="rp8YPWn2PLwtabxcjHet-10" target="rp8YPWn2PLwtabxcjHet-12" edge="1">
          <mxGeometry relative="1" as="geometry" />
        </mxCell>
        <mxCell id="rp8YPWn2PLwtabxcjHet-10" value="&lt;p style=&quot;margin:0px;margin-top:4px;text-align:center;text-decoration:underline;&quot;&gt;&lt;b&gt;Object:NVila&lt;/b&gt;&lt;/p&gt;&lt;hr size=&quot;1&quot; style=&quot;border-style:solid;&quot;&gt;&lt;p style=&quot;margin:0px;margin-left:8px;&quot;&gt;&lt;span style=&quot;background-color: transparent; color: light-dark(rgb(0, 0, 0), rgb(255, 255, 255));&quot;&gt;Create prompt from video&lt;/span&gt;&lt;/p&gt;" style="verticalAlign=top;align=left;overflow=fill;html=1;whiteSpace=wrap;" parent="1" vertex="1">
          <mxGeometry x="444" y="300" width="160" height="70" as="geometry" />
        </mxCell>
        <mxCell id="rp8YPWn2PLwtabxcjHet-12" value="&lt;p style=&quot;margin:0px;margin-top:4px;text-align:center;text-decoration:underline;&quot;&gt;&lt;b&gt;Object:SAM2Act&lt;/b&gt;&lt;/p&gt;&lt;hr size=&quot;1&quot; style=&quot;border-style:solid;&quot;&gt;&lt;p style=&quot;margin:0px;margin-left:8px;&quot;&gt;&lt;span style=&quot;background-color: transparent; color: light-dark(rgb(0, 0, 0), rgb(255, 255, 255));&quot;&gt;Excecute given prompt&lt;/span&gt;&lt;/p&gt;" style="verticalAlign=top;align=left;overflow=fill;html=1;whiteSpace=wrap;" parent="1" vertex="1">
          <mxGeometry x="654" y="290" width="160" height="90" as="geometry" />
        </mxCell>
        <mxCell id="rp8YPWn2PLwtabxcjHet-16" value="" style="edgeStyle=orthogonalEdgeStyle;rounded=0;orthogonalLoop=1;jettySize=auto;html=1;" parent="1" source="rp8YPWn2PLwtabxcjHet-14" target="rp8YPWn2PLwtabxcjHet-9" edge="1">
          <mxGeometry relative="1" as="geometry" />
        </mxCell>
        <mxCell id="rp8YPWn2PLwtabxcjHet-14" value="&lt;p style=&quot;margin:0px;margin-top:4px;text-align:center;text-decoration:underline;&quot;&gt;&lt;b&gt;Object:YOLO&lt;/b&gt;&lt;/p&gt;&lt;hr size=&quot;1&quot; style=&quot;border-style:solid;&quot;&gt;&lt;p style=&quot;margin:0px;margin-left:8px;&quot;&gt;Get bounding boxes:&lt;/p&gt;&lt;p style=&quot;margin:0px;margin-left:8px;&quot;&gt;* User&lt;/p&gt;&lt;p style=&quot;margin:0px;margin-left:8px;&quot;&gt;* Hand&lt;/p&gt;&lt;p style=&quot;margin:0px;margin-left:8px;&quot;&gt;* Object&lt;/p&gt;&lt;p style=&quot;margin:0px;margin-left:8px;&quot;&gt;* Robot&lt;/p&gt;" style="verticalAlign=top;align=left;overflow=fill;html=1;whiteSpace=wrap;" parent="1" vertex="1">
          <mxGeometry x="14" y="280" width="160" height="110" as="geometry" />
        </mxCell>
      </root>
    </mxGraphModel>
  </diagram>
</mxfile>
